<svg version="1.2" xmlns="http://www.w3.org/2000/svg" viewBox="0 0 35 17" width="35" height="17">
	<title>1C_Company_logo-svg</title>
	<defs>
		<clipPath clipPathUnits="userSpaceOnUse" id="cp1">
			<path d="m-147.01-39.27h331.24v329.86h-331.24z"/>
		</clipPath>
	</defs>
	<style>
		.s0 { fill: #d91920 } 
	</style>
	<g id="g10">
		<g id="g12">
			<g id="Clip-Path: g14" clip-path="url(#cp1)">
				<g id="g14">
					<g id="g20">
						<path id="path22" fill-rule="evenodd" class="s0" d="m19.5 14.8h15.5v2.2h-15.6c-0.2 0-1.2 0-1.5 0-0.8-0.1-1.8-0.3-2.5-0.5-0.3-0.1-1-0.3-1.4-0.6-2.7-1.4-4.5-4.2-4.5-7.4 0-4.7 3.8-8.5 8.5-8.5 4.6 0 8.4 3.8 8.5 8.4h-2.3c0-3.4-2.8-6.1-6.2-6.1-3.5 0-6.3 2.8-6.3 6.2 0 2.5 1.5 4.6 3.7 5.6 0.1 0.1 0.6 0.3 0.7 0.3 0.6 0.2 1.4 0.3 2.1 0.3 0.2 0 1.1 0.1 1.3 0.1zm15.5-3.6v2.2h-15.6c-0.2 0-1.1 0-1.2-0.1-0.5 0-1.1-0.1-1.6-0.2-0.1 0-0.6-0.2-0.8-0.3-1.6-0.8-2.7-2.4-2.7-4.3 0-2.7 2.2-4.9 4.9-4.9 2.6 0 4.8 2.2 4.8 4.8h-2.1c-0.1-1.4-1.3-2.6-2.7-2.6-1.5 0-2.7 1.2-2.7 2.7 0 1 0.6 1.9 1.4 2.3 0.1 0.1 0.4 0.2 0.7 0.3 0.2 0 0.6 0.1 0.9 0.1 0.1 0 1 0 1.2 0zm-26.9 5.8h-2.3v-14.7h-3.3v-2.3h5.6zm-3.4-13.6v13.6h-2.2v-11.4h-2.5v-2.2z"/>
					</g>
					<g id="g24">
						<path id="path26" fill-rule="evenodd" class="s0" d="m31 3.1c-0.9 0-1.5-0.6-1.5-1.5 0-0.8 0.6-1.4 1.5-1.4 0.8 0 1.5 0.6 1.5 1.4 0 0.9-0.7 1.5-1.5 1.5zm1.2-1.5c0-0.7-0.5-1.2-1.2-1.2-0.7 0-1.3 0.5-1.3 1.2 0 0.7 0.6 1.3 1.3 1.3 0.7 0 1.2-0.6 1.2-1.3z"/>
					</g>
					<g id="g28">
						<path id="path30" fill-rule="evenodd" class="s0" d="m31.6 2.4h-0.3c0-0.1 0-0.1 0-0.4 0-0.1-0.1-0.2-0.4-0.2h-0.2v0.6h-0.3v-1.5h0.7c0.1 0 0.5 0 0.5 0.4 0 0.1 0 0.3-0.3 0.3 0.2 0.1 0.2 0.3 0.2 0.4 0.1 0.3 0 0.3 0.1 0.4zm-0.3-1.1c0-0.2-0.1-0.2-0.3-0.2h-0.3v0.4h0.3c0.3 0 0.3-0.1 0.3-0.2z"/>
					</g>
				</g>
			</g>
		</g>
	</g>
</svg>