<svg version="1.2" xmlns="http://www.w3.org/2000/svg" viewBox="0 0 35 35" width="35" height="35">
	<title>bitrix24-svgrepo-com-svg</title>
	<style>
		.s0 { fill: #2fc7f7 } 
		.s1 { fill: #ffffff } 
	</style>
	<path id="Layer" class="s0" d="m17.5 35c-9.7 0-17.5-7.8-17.5-17.5 0-9.7 7.8-17.5 17.5-17.5 9.7 0 17.5 7.8 17.5 17.5 0 9.7-7.8 17.5-17.5 17.5z"/>
	<path id="Layer" fill-rule="evenodd" class="s1" d="m29.1 18.6c-0.6 0-1.1-0.4-1.4-1-0.2-0.5-0.1-1.2 0.4-1.6 0.4-0.4 1-0.6 1.6-0.3 0.6 0.2 0.9 0.8 0.9 1.4q0 0.3-0.1 0.5-0.1 0.3-0.3 0.5-0.2 0.2-0.5 0.3-0.3 0.2-0.6 0.2zm0-2.8c-0.5 0-0.9 0.3-1.1 0.8-0.2 0.4-0.1 1 0.3 1.3 0.3 0.4 0.8 0.5 1.3 0.3 0.5-0.2 0.8-0.6 0.8-1.1q0-0.3-0.1-0.5-0.1-0.2-0.3-0.4-0.2-0.2-0.4-0.3-0.2-0.1-0.5-0.1zm0.9 1.5h-1v-1h0.2v0.8h0.8zm-3.2 0.6v0.5h-0.6v1h-0.7v-1h-1.7v-0.4l1.9-2.5h0.5v2.4zm-1.2-0.6c0-0.3 0-0.6 0-0.8l-1 1.4c0.1 0 0.4-0.1 0.5-0.1h0.5zm-2.6-0.7c0-0.3-0.3-0.5-0.7-0.5-0.3 0-0.7 0.2-0.9 0.3l-0.2-0.6q0.1 0 0.3-0.1 0.1-0.1 0.3-0.1 0.2 0 0.3-0.1 0.2 0 0.4 0c0.8 0 1.2 0.4 1.2 1 0 1.1-1.5 1.4-1.7 2.3h1.7v0.6h-2.7c0.2-1.9 2-2 2-2.8zm-4.6 1.2l-1.1-1.6h0.8l0.8 1.1 0.7-1.1h0.9l-1.2 1.6 1.2 1.6h-0.9l-0.7-1-0.8 1h-0.8zm-2.6-2.6q0-0.2 0.2-0.3 0.1-0.1 0.3-0.1 0.2 0 0.4 0.1 0.1 0.1 0.1 0.3c0 0.3-0.2 0.5-0.5 0.5-0.3 0-0.5-0.2-0.5-0.5zm0.1 1h0.8v3.2h-0.8zm-2.5 0h0.7l0.1 0.4c0.3-0.3 0.5-0.4 0.9-0.4q0 0 0.1 0 0 0 0.1 0 0.1 0 0.1 0 0.1 0.1 0.1 0.1l-0.3 0.7q0-0.1-0.1-0.1 0 0 0 0-0.1 0-0.1 0-0.1 0-0.1 0c-0.2 0-0.4 0.1-0.7 0.3v2.2h-0.8zm-4.2-1q0-0.1 0-0.1 0-0.1 0.1-0.2 0.1-0.1 0.2-0.1 0-0.1 0.1-0.1c0.3 0 0.5 0.3 0.5 0.5 0 0.3-0.2 0.5-0.5 0.5-0.2 0-0.4-0.2-0.4-0.5zm0 1h0.8v3.2h-0.8zm1.9 2.4v-1.7h-0.5v-0.7h0.5v-0.7l0.8-0.2v0.9h1l-0.2 0.7h-0.8v1.5c0 0.3 0.1 0.4 0.4 0.4q0 0 0.1 0 0.1 0 0.1 0 0.1 0 0.1-0.1 0.1 0 0.1 0l0.3 0.5c-0.2 0.2-0.6 0.3-0.9 0.3-0.6 0-1-0.3-1-0.9zm-5.5-3.6h1.3c0.9 0 1.3 0.5 1.3 1.1 0 0.4-0.1 0.7-0.5 0.9 0.5 0.2 0.8 0.6 0.8 1.1 0 0.7-0.5 1.3-1.5 1.3h-1.4zm1.2 1.9c0.4 0 0.7-0.3 0.7-0.6 0-0.3-0.3-0.6-0.7-0.6h-0.4v1.2zm0.1 1.9c0.5 0 0.8-0.2 0.8-0.6 0-0.4-0.2-0.7-0.7-0.7h-0.6v1.3z"/>
</svg>